<?xml version="1.0" encoding="UTF-8" standalone="no"?>
<!-- Generator: Adobe Illustrator 18.1.1, SVG Export Plug-In . SVG Version: 6.00 Build 0)  -->

<svg
   version="1.1"
   id="Capa_1"
   x="0px"
   y="0px"
   viewBox="0 0 64 64"
   xml:space="preserve"
   inkscape:version="1.4.2 (ebf0e940d0, 2025-05-08)"
   width="100%"
   height="100%"
   sodipodi:docname="clone-row.svg"
   xmlns:inkscape="http://www.inkscape.org/namespaces/inkscape"
   xmlns:sodipodi="http://sodipodi.sourceforge.net/DTD/sodipodi-0.dtd"
   xmlns="http://www.w3.org/2000/svg"
   xmlns:svg="http://www.w3.org/2000/svg"
   xmlns:rdf="http://www.w3.org/1999/02/22-rdf-syntax-ns#"
   xmlns:cc="http://creativecommons.org/ns#"
   xmlns:dc="http://purl.org/dc/elements/1.1/"><metadata
     id="metadata47"><rdf:RDF><cc:Work
         rdf:about=""><dc:format>image/svg+xml</dc:format><dc:type
           rdf:resource="http://purl.org/dc/dcmitype/StillImage" /></cc:Work></rdf:RDF></metadata><defs
     id="defs45" /><sodipodi:namedview
     pagecolor="#ffffff"
     bordercolor="#666666"
     borderopacity="1"
     objecttolerance="10"
     gridtolerance="10"
     guidetolerance="10"
     inkscape:pageopacity="0"
     inkscape:pageshadow="2"
     inkscape:window-width="1920"
     inkscape:window-height="998"
     id="namedview43"
     showgrid="false"
     inkscape:zoom="7.6718029"
     inkscape:cx="38.322152"
     inkscape:cy="26.590881"
     inkscape:window-x="0"
     inkscape:window-y="0"
     inkscape:window-maximized="1"
     inkscape:current-layer="Capa_1"
     fit-margin-top="0"
     fit-margin-left="0"
     fit-margin-right="0"
     fit-margin-bottom="0"
     inkscape:showpageshadow="2"
     inkscape:pagecheckerboard="0"
     inkscape:deskcolor="#d1d1d1" /><path
     style="fill:#ffdf6f;fill-opacity:1;stroke:none"
     d="m 13.251477,18.680699 v 25.51119 h 19.971447 c 0,-0.11548 -0.0132,-0.23096 -0.0132,-0.34314 0,-1.431953 0.201266,-2.817713 0.544406,-4.140787 H 17.738701 V 23.167923 h 41.777376 v 7.232349 c 1.801488,1.306574 3.332423,2.959588 4.483924,4.873257 V 18.680699 H 13.251477 z"
     id="path7"
     inkscape:connector-curvature="0" /><path
     style="fill:#ffdf6f;fill-opacity:1;stroke:none"
     d="m 50.191889,30.387074 c -7.611783,0 -13.801513,6.193029 -13.801513,13.804815 0,7.615083 6.18973,13.808112 13.801513,13.808112 7.618383,0 13.808112,-6.193029 13.808112,-13.808112 0,-7.611786 -6.189729,-13.804815 -13.808112,-13.804815 z m 0,23.864775 c -5.539742,0 -10.053361,-4.51032 -10.053361,-10.05996 0,-5.543043 4.513619,-10.059962 10.053361,-10.059962 5.556239,0 10.06326,4.516919 10.06326,10.059962 0,5.54964 -4.507021,10.05996 -10.06326,10.05996 z"
     id="path9"
     inkscape:connector-curvature="0" /><path
     style="fill:#ffdf6f;fill-opacity:1;stroke:none"
     d="m 48.51413,37.299379 0,4.536718 -4.536716,0 0,3.711858 4.536716,0 0,4.433608 3.60875,0 0,-4.433608 4.536716,0 0,-3.711858 -4.536716,0 0,-4.536718 -3.60875,0 z"
     id="rect11"
     inkscape:connector-curvature="0" /><path
     inkscape:connector-curvature="0"
     id="path3053"
     d="m -2.2747089e-7,7.310785 0,25.511187 15.77824122747089,0 c 0,-0.11548 -0.0132,-0.23096 -0.0132,-0.343141 0,-1.431952 0.201265,-2.817712 0.544406,-4.140783 l -11.8222259,0 0,-16.540036 41.7773779,0 0,7.232345 c 1.801488,1.306574 3.332423,1.024263 4.483924,2.937932 l 0,-14.657504 z"
     style="fill:#ffdf6f;fill-opacity:1;stroke:none"
     sodipodi:nodetypes="cccscccccccc" /></svg>
