<?xml version="1.0" encoding="UTF-8" standalone="no"?>
<!-- Generator: Adobe Illustrator 18.1.1, SVG Export Plug-In . SVG Version: 6.00 Build 0)  -->

<svg
   version="1.1"
   id="Capa_1"
   x="0px"
   y="0px"
   viewBox="0 0 57.231 57.231"
   xml:space="preserve"
   inkscape:version="1.4.2 (ebf0e940d0, 2025-05-08)"
   width="100%"
   height="100%"
   sodipodi:docname="find.svg"
   style="enable-background:new 0 0 57.231 57.231;"
   xmlns:inkscape="http://www.inkscape.org/namespaces/inkscape"
   xmlns:sodipodi="http://sodipodi.sourceforge.net/DTD/sodipodi-0.dtd"
   xmlns="http://www.w3.org/2000/svg"
   xmlns:svg="http://www.w3.org/2000/svg"
   xmlns:rdf="http://www.w3.org/1999/02/22-rdf-syntax-ns#"
   xmlns:cc="http://creativecommons.org/ns#"
   xmlns:dc="http://purl.org/dc/elements/1.1/"><metadata
     id="metadata45"><rdf:RDF><cc:Work
         rdf:about=""><dc:format>image/svg+xml</dc:format><dc:type
           rdf:resource="http://purl.org/dc/dcmitype/StillImage" /></cc:Work></rdf:RDF></metadata><defs
     id="defs43" /><sodipodi:namedview
     pagecolor="#ffffff"
     bordercolor="#666666"
     borderopacity="1"
     objecttolerance="10"
     gridtolerance="10"
     guidetolerance="10"
     inkscape:pageopacity="0"
     inkscape:pageshadow="2"
     inkscape:window-width="1920"
     inkscape:window-height="998"
     id="namedview41"
     showgrid="false"
     inkscape:zoom="4.1236393"
     inkscape:cx="29.828021"
     inkscape:cy="28.6155"
     inkscape:window-x="0"
     inkscape:window-y="0"
     inkscape:window-maximized="1"
     inkscape:current-layer="Capa_1"
     inkscape:pagecheckerboard="0"
     height="60px"
     inkscape:showpageshadow="2"
     inkscape:deskcolor="#d1d1d1" /><path
     style="fill:#ffdf6f;stroke-width:0.746887;fill-opacity:1;stroke:none"
     d="m 32.103617,14.243398 c 1.233858,0 2.234687,1.001575 2.234687,2.234686 0,1.235351 -1.000829,2.234686 -2.234687,2.234686 -2.730619,0 -5.169205,1.525144 -6.366466,3.98315 -0.387634,0.793194 -1.182322,1.25477 -2.009873,1.25477 -0.329377,0 -0.663236,-0.07245 -0.977675,-0.226307 -1.109874,-0.539999 -1.571451,-1.877674 -1.029957,-2.988295 1.951616,-4.004809 5.931777,-6.49269 10.383971,-6.49269 z"
     id="path7"
     inkscape:connector-curvature="0" /><path
     style="fill:#ffdf6f;stroke-width:0.746887;fill-opacity:1;stroke:none"
     d="m 8.0613204,44.937472 7.4472116,-7.447959 c -2.204811,-3.101075 -3.514104,-6.881071 -3.514104,-10.968038 0,-10.475092 8.521982,-18.9970739 18.997074,-18.9970739 10.475093,0 18.996328,8.5219819 18.996328,18.9970739 0,10.474346 -8.521235,18.996328 -18.996328,18.996328 -4.376011,0 -8.398745,-1.501243 -11.613348,-3.996593 l -7.365801,7.365801 c -0.545227,0.545227 -1.261492,0.818588 -1.975516,0.818588 -0.715518,0 -1.430289,-0.272614 -1.9755166,-0.818588 -1.0912021,-1.089708 -1.0912021,-2.858337 0,-3.949539 z M 45.516964,26.522222 c 0,-8.010364 -6.517338,-14.526955 -14.526955,-14.526955 -8.009618,0 -14.526955,6.516591 -14.526955,14.526955 0,3.332611 1.139003,6.397836 3.034602,8.852107 0.626639,0.810372 1.330206,1.558006 2.11145,2.220495 2.533441,2.149541 5.805554,3.454353 9.380903,3.454353 8.010364,-7.47e-4 14.526955,-6.517337 14.526955,-14.526955 z"
     id="path9"
     inkscape:connector-curvature="0" /></svg>
