<?xml version="1.0" encoding="UTF-8" standalone="no"?>
<!-- Generator: Adobe Illustrator 18.1.1, SVG Export Plug-In . SVG Version: 6.00 Build 0)  -->

<svg
   version="1.1"
   id="Capa_1"
   x="0px"
   y="0px"
   viewBox="0 0 368.10766 439.02307"
   xml:space="preserve"
   inkscape:version="1.4.2 (ebf0e940d0, 2025-05-08)"
   width="100%"
   height="100%"
   sodipodi:docname="zoom_fitall.svg"
   xmlns:inkscape="http://www.inkscape.org/namespaces/inkscape"
   xmlns:sodipodi="http://sodipodi.sourceforge.net/DTD/sodipodi-0.dtd"
   xmlns="http://www.w3.org/2000/svg"
   xmlns:svg="http://www.w3.org/2000/svg"
   xmlns:rdf="http://www.w3.org/1999/02/22-rdf-syntax-ns#"
   xmlns:cc="http://creativecommons.org/ns#"
   xmlns:dc="http://purl.org/dc/elements/1.1/"><metadata
     id="metadata43"><rdf:RDF><cc:Work
         rdf:about=""><dc:format>image/svg+xml</dc:format><dc:type
           rdf:resource="http://purl.org/dc/dcmitype/StillImage" /></cc:Work></rdf:RDF></metadata><defs
     id="defs41" /><sodipodi:namedview
     pagecolor="#ffffff"
     bordercolor="#666666"
     borderopacity="1"
     objecttolerance="10"
     gridtolerance="10"
     guidetolerance="10"
     inkscape:pageopacity="0"
     inkscape:pageshadow="2"
     inkscape:window-width="1920"
     inkscape:window-height="998"
     id="namedview39"
     showgrid="false"
     fit-margin-top="0"
     fit-margin-left="0"
     fit-margin-right="0"
     fit-margin-bottom="0"
     inkscape:zoom="0.50177215"
     inkscape:cx="356.73562"
     inkscape:cy="241.14531"
     inkscape:window-x="0"
     inkscape:window-y="0"
     inkscape:window-maximized="1"
     inkscape:current-layer="Capa_1"
     inkscape:showpageshadow="2"
     inkscape:pagecheckerboard="0"
     inkscape:deskcolor="#d1d1d1" /><path
     style="font-size:medium;font-style:normal;font-variant:normal;font-weight:normal;font-stretch:normal;text-indent:0;text-align:start;text-decoration:none;line-height:normal;letter-spacing:normal;word-spacing:normal;text-transform:none;direction:ltr;block-progression:tb;writing-mode:lr-tb;text-anchor:start;baseline-shift:baseline;color:#000000;fill:#ffdf6f;fill-opacity:1;stroke:none;stroke-width:28.45199966;marker:none;visibility:visible;display:inline;overflow:visible;enable-background:accumulate;font-family:Sans;-inkscape-font-specification:Sans"
     d="M 19.23946,0 C 8.8726,0 0,8.872532 0,19.239463 L 0,419.7836 c 0,10.36686 8.8726,19.23946 19.23946,19.23946 l 329.62873,0 c 10.36686,0 19.23947,-8.8726 19.23947,-19.23946 l 0,-400.544137 C 368.10766,8.872532 359.23505,0 348.86819,0 L 19.23946,0 z m 14.53154,33.771004 300.56565,0 0,371.518126 -300.56565,0 0,-371.518126 z"
     id="rect3031"
     inkscape:connector-curvature="0" /><path
     style="color:#000000;font-style:normal;font-variant:normal;font-weight:normal;font-stretch:normal;font-size:medium;line-height:normal;font-family:Sans;-inkscape-font-specification:Sans;text-indent:0;text-align:start;text-decoration:none;text-decoration-line:none;letter-spacing:normal;word-spacing:normal;text-transform:none;writing-mode:lr-tb;direction:ltr;baseline-shift:baseline;text-anchor:start;display:inline;overflow:visible;visibility:visible;fill:#ffdf6f;fill-opacity:1;fill-rule:nonzero;stroke:none;stroke-width:26.0975;stroke-miterlimit:4;stroke-dasharray:none;marker:none;enable-background:accumulate"
     d="m 185.83321,61.083403 a 13.050035,13.050035 0 0 0 -12.86338,13.234081 v 74.029306 a 13.050035,13.050035 0 1 0 26.09746,0 V 74.317484 A 13.050035,13.050035 0 0 0 185.83321,61.083403 Z"
     id="path3812"
     inkscape:connector-curvature="0" /><path
     style="color:#000000;font-style:normal;font-variant:normal;font-weight:normal;font-stretch:normal;font-size:medium;line-height:normal;font-family:Sans;-inkscape-font-specification:Sans;text-indent:0;text-align:start;text-decoration:none;text-decoration-line:none;letter-spacing:normal;word-spacing:normal;text-transform:none;writing-mode:lr-tb;direction:ltr;baseline-shift:baseline;text-anchor:start;display:inline;overflow:visible;visibility:visible;fill:#ffdf6f;fill-opacity:1;stroke:none;stroke-width:26.0975;stroke-miterlimit:4;stroke-dasharray:none;marker:none;enable-background:accumulate"
     d="m 185.83321,33.762624 a 13.050035,13.050035 0 0 0 -9.04514,3.818236 L 125.4087,88.960235 a 13.05389,13.05389 0 1 0 18.46098,18.460985 l 42.14888,-42.185949 42.14889,42.185949 A 13.05389,13.05389 0 1 0 246.62843,88.960235 L 195.24906,37.58086 a 13.050035,13.050035 0 0 0 -9.41585,-3.818236 z"
     id="path3814"
     inkscape:connector-curvature="0" /><path
     style="color:#000000;font-style:normal;font-variant:normal;font-weight:normal;font-stretch:normal;font-size:medium;line-height:normal;font-family:Sans;-inkscape-font-specification:Sans;text-indent:0;text-align:start;text-decoration:none;text-decoration-line:none;letter-spacing:normal;word-spacing:normal;text-transform:none;writing-mode:lr-tb;direction:ltr;baseline-shift:baseline;text-anchor:start;display:inline;overflow:visible;visibility:visible;fill:#ffdf6f;fill-opacity:1;fill-rule:nonzero;stroke:none;stroke-width:26.0975;stroke-miterlimit:4;stroke-dasharray:none;marker:none;enable-background:accumulate"
     d="m 181.08822,276.54411 a 13.050035,13.050035 0 0 0 -12.86338,13.23408 v 73.99223 a 13.050035,13.050035 0 1 0 26.09746,0 v -73.99223 a 13.050035,13.050035 0 0 0 -13.23408,-13.23408 z"
     id="path3816"
     inkscape:connector-curvature="0" /><path
     style="color:#000000;font-style:normal;font-variant:normal;font-weight:normal;font-stretch:normal;font-size:medium;line-height:normal;font-family:Sans;-inkscape-font-specification:Sans;text-indent:0;text-align:start;text-decoration:none;text-decoration-line:none;letter-spacing:normal;word-spacing:normal;text-transform:none;writing-mode:lr-tb;direction:ltr;baseline-shift:baseline;text-anchor:start;display:inline;overflow:visible;visibility:visible;fill:#ffdf6f;fill-opacity:1;stroke:none;stroke-width:26.0975;stroke-miterlimit:4;stroke-dasharray:none;marker:none;enable-background:accumulate"
     d="m 129.74592,326.73724 a 13.050035,13.050035 0 0 0 -9.08222,22.4275 l 51.37938,51.37938 a 13.050035,13.050035 0 0 0 18.46099,0 l 51.37937,-51.37938 a 13.050035,13.050035 0 1 0 -18.42392,-18.46099 l -42.18595,42.14888 -42.14888,-42.14888 a 13.050035,13.050035 0 0 0 -9.37877,-3.96651 z"
     id="path3818"
     inkscape:connector-curvature="0" /><path
     style="color:#000000;font-style:normal;font-variant:normal;font-weight:normal;font-stretch:normal;font-size:medium;line-height:normal;font-family:Sans;-inkscape-font-specification:Sans;text-indent:0;text-align:start;text-decoration:none;text-decoration-line:none;letter-spacing:normal;word-spacing:normal;text-transform:none;writing-mode:lr-tb;direction:ltr;baseline-shift:baseline;text-anchor:start;display:inline;overflow:visible;visibility:visible;fill:#ffdf6f;fill-opacity:1;fill-rule:nonzero;stroke:none;stroke-width:26.0975;stroke-miterlimit:4;stroke-dasharray:none;marker:none;enable-background:accumulate"
     d="m 220.07775,207.18566 a 13.050035,13.050035 0 1 0 0,26.09746 h 74.0293 a 13.050035,13.050035 0 1 0 0,-26.09746 z"
     id="path3820"
     inkscape:connector-curvature="0" /><path
     style="color:#000000;font-style:normal;font-variant:normal;font-weight:normal;font-stretch:normal;font-size:medium;line-height:normal;font-family:Sans;-inkscape-font-specification:Sans;text-indent:0;text-align:start;text-decoration:none;text-decoration-line:none;letter-spacing:normal;word-spacing:normal;text-transform:none;writing-mode:lr-tb;direction:ltr;baseline-shift:baseline;text-anchor:start;display:inline;overflow:visible;visibility:visible;fill:#ffdf6f;fill-opacity:1;stroke:none;stroke-width:26.0975;stroke-miterlimit:4;stroke-dasharray:none;marker:none;enable-background:accumulate"
     d="m 270.1226,155.658 a 13.050035,13.050035 0 0 0 -9.11928,22.42751 l 42.18595,42.14888 -42.18595,42.14888 a 13.05389,13.05389 0 1 0 18.46098,18.46099 l 51.37938,-51.37938 a 13.050035,13.050035 0 0 0 0,-18.46098 L 279.4643,159.62452 a 13.050035,13.050035 0 0 0 -9.3417,-3.96652 z"
     id="path3822"
     inkscape:connector-curvature="0" /><path
     style="color:#000000;font-style:normal;font-variant:normal;font-weight:normal;font-stretch:normal;font-size:medium;line-height:normal;font-family:Sans;-inkscape-font-specification:Sans;text-indent:0;text-align:start;text-decoration:none;text-decoration-line:none;letter-spacing:normal;word-spacing:normal;text-transform:none;writing-mode:lr-tb;direction:ltr;baseline-shift:baseline;text-anchor:start;display:inline;overflow:visible;visibility:visible;fill:#ffdf6f;fill-opacity:1;fill-rule:nonzero;stroke:none;stroke-width:26.0975;stroke-miterlimit:4;stroke-dasharray:none;marker:none;enable-background:accumulate"
     d="m 75.565953,202.44067 a 13.050035,13.050035 0 1 0 0,26.09746 h 74.029297 a 13.050035,13.050035 0 1 0 0,-26.09746 z"
     id="path3824"
     inkscape:connector-curvature="0" /><path
     style="color:#000000;font-style:normal;font-variant:normal;font-weight:normal;font-stretch:normal;font-size:medium;line-height:normal;font-family:Sans;-inkscape-font-specification:Sans;text-indent:0;text-align:start;text-decoration:none;text-decoration-line:none;letter-spacing:normal;word-spacing:normal;text-transform:none;writing-mode:lr-tb;direction:ltr;baseline-shift:baseline;text-anchor:start;display:inline;overflow:visible;visibility:visible;fill:#ffdf6f;fill-opacity:1;stroke:none;stroke-width:26.0975;stroke-miterlimit:4;stroke-dasharray:none;marker:none;enable-background:accumulate"
     d="m 99.179706,150.95008 a 13.050035,13.050035 0 0 0 -8.971002,3.92945 l -51.416445,51.41644 a 13.050035,13.050035 0 0 0 0,18.42392 l 51.416445,51.41645 A 13.050035,13.050035 0 1 0 108.63262,257.67535 L 66.48374,215.4894 108.63262,173.34051 a 13.050035,13.050035 0 0 0 -9.452914,-22.39043 z"
     id="path3826"
     inkscape:connector-curvature="0" /></svg>
