<?xml version="1.0" encoding="UTF-8" standalone="no"?>
<!-- Generator: Adobe Illustrator 18.1.1, SVG Export Plug-In . SVG Version: 6.00 Build 0)  -->

<svg
   version="1.1"
   id="Capa_1"
   x="0px"
   y="0px"
   viewBox="0 0 470.333 470.333"
   style="enable-background:new 0 0 470.333 470.333;"
   xml:space="preserve"
   sodipodi:docname="copy.svg"
   inkscape:version="1.4.2 (ebf0e940d0, 2025-05-08)"
   xmlns:inkscape="http://www.inkscape.org/namespaces/inkscape"
   xmlns:sodipodi="http://sodipodi.sourceforge.net/DTD/sodipodi-0.dtd"
   xmlns="http://www.w3.org/2000/svg"
   xmlns:svg="http://www.w3.org/2000/svg"><defs
   id="defs17">
	

		
	</defs><sodipodi:namedview
   id="namedview17"
   pagecolor="#ffffff"
   bordercolor="#666666"
   borderopacity="1.0"
   inkscape:showpageshadow="2"
   inkscape:pageopacity="0.0"
   inkscape:pagecheckerboard="0"
   inkscape:deskcolor="#d1d1d1"
   inkscape:zoom="1.6583994"
   inkscape:cx="235.1665"
   inkscape:cy="235.1665"
   inkscape:window-width="1920"
   inkscape:window-height="998"
   inkscape:window-x="0"
   inkscape:window-y="0"
   inkscape:window-maximized="1"
   inkscape:current-layer="Capa_1" />
<path
   d="m 333.483,0 h -194.65 c -9.35,0 -17,7.65 -17,17 V 90.667 H 48.167 c -9.35,0 -17,7.65 -17,17 v 345.667 c 0,9.35 7.65,17 17,17 h 286.167 c 9.35,0 17,-7.65 17,-17 v -76.5 h 70.833 c 9.35,0 17,-7.65 17,-17 V 106.25 c 0,-4.533 -1.7,-8.783 -4.817,-11.9 L 345.667,5.1 C 342.55,1.7 338.017,0 333.483,0 Z m -16.15,436.333 H 65.167 V 124.667 h 56.667 v 235.167 c 0,9.35 7.65,17 17,17 h 178.5 v 59.499 z m -161.5,-93.5 V 34 h 147.333 v 96.333 c 0,9.35 7.65,17 17,17 h 85 v 195.5 z m 249.334,-229.5 h -68 V 44.767 Z"
   id="path1"
   style="fill:#ffdf6f;fill-opacity:1;stroke:none" />















</svg>
