<?xml version="1.0" encoding="UTF-8" standalone="no"?>
<!-- Generator: Adobe Illustrator 18.1.1, SVG Export Plug-In . SVG Version: 6.00 Build 0)  -->

<svg
   version="1.1"
   id="Capa_1"
   x="0px"
   y="0px"
   viewBox="0 0 63.999999 64"
   xml:space="preserve"
   inkscape:version="1.4.2 (ebf0e940d0, 2025-05-08)"
   width="100%"
   height="100%"
   sodipodi:docname="delete-row.svg"
   xmlns:inkscape="http://www.inkscape.org/namespaces/inkscape"
   xmlns:sodipodi="http://sodipodi.sourceforge.net/DTD/sodipodi-0.dtd"
   xmlns="http://www.w3.org/2000/svg"
   xmlns:svg="http://www.w3.org/2000/svg"
   xmlns:rdf="http://www.w3.org/1999/02/22-rdf-syntax-ns#"
   xmlns:cc="http://creativecommons.org/ns#"
   xmlns:dc="http://purl.org/dc/elements/1.1/"><metadata
     id="metadata47"><rdf:RDF><cc:Work
         rdf:about=""><dc:format>image/svg+xml</dc:format><dc:type
           rdf:resource="http://purl.org/dc/dcmitype/StillImage" /></cc:Work></rdf:RDF></metadata><defs
     id="defs45" /><sodipodi:namedview
     pagecolor="#ffffff"
     bordercolor="#666666"
     borderopacity="1"
     objecttolerance="10"
     gridtolerance="10"
     guidetolerance="10"
     inkscape:pageopacity="0"
     inkscape:pageshadow="2"
     inkscape:window-width="1920"
     inkscape:window-height="998"
     id="namedview43"
     showgrid="false"
     fit-margin-top="0"
     fit-margin-left="0"
     fit-margin-right="0"
     fit-margin-bottom="0"
     inkscape:zoom="10.849568"
     inkscape:cx="27.74304"
     inkscape:cy="32.628028"
     inkscape:window-x="0"
     inkscape:window-y="0"
     inkscape:window-maximized="1"
     inkscape:current-layer="Capa_1"
     inkscape:showpageshadow="2"
     inkscape:pagecheckerboard="0"
     inkscape:deskcolor="#d1d1d1" /><path
     style="display:inline;fill:#ffdf6f;stroke-width:4.16098;fill-opacity:1;stroke:none"
     d="M -2.7464407e-7,7.0653652 V 39.238046 H 25.186399 c 0,-0.145634 -0.01664,-0.291268 -0.01664,-0.432741 0,-1.805865 0.25382,-3.553475 0.686561,-5.222028 H 5.6589297 V 12.724295 H 58.345232 v 9.120864 c 2.271894,1.647747 4.202588,3.732397 5.654769,6.145764 V 7.0653652 Z"
     id="path7"
     inkscape:connector-curvature="0" /><path
     style="display:inline;fill:#ffdf6f;stroke-width:4.16098;fill-opacity:1;stroke:none"
     d="m 46.586308,21.828515 c -9.599376,0 -17.40537,7.810155 -17.40537,17.409531 0,9.603537 7.805994,17.413693 17.40537,17.413693 9.607698,0 17.413693,-7.810156 17.413693,-17.413693 0,-9.599376 -7.805995,-17.409531 -17.413693,-17.409531 z m 0,30.096353 c -6.986282,0 -12.678499,-5.688057 -12.678499,-12.686822 0,-6.990443 5.692217,-12.686821 12.678499,-12.686821 7.007087,0 12.690983,5.696378 12.690983,12.686821 0,6.998765 -5.683896,12.686822 -12.690983,12.686822 z"
     id="path9"
     inkscape:connector-curvature="0" /><rect
     x="38.747028"
     y="36.304558"
     style="display:inline;fill:#ffdf6f;stroke-width:4.16098;fill-opacity:1;stroke:none"
     width="15.9948"
     height="4.5937195"
     id="rect11" /></svg>
