<?xml version="1.0" encoding="UTF-8" standalone="no"?>
<!-- Generator: Adobe Illustrator 18.1.1, SVG Export Plug-In . SVG Version: 6.00 Build 0)  -->

<svg
   version="1.1"
   id="Capa_1"
   x="0px"
   y="0px"
   viewBox="0 0 64 63.999999"
   xml:space="preserve"
   inkscape:version="1.4.2 (ebf0e940d0, 2025-05-08)"
   width="100%"
   height="100%"
   sodipodi:docname="insert-column.svg"
   xmlns:inkscape="http://www.inkscape.org/namespaces/inkscape"
   xmlns:sodipodi="http://sodipodi.sourceforge.net/DTD/sodipodi-0.dtd"
   xmlns="http://www.w3.org/2000/svg"
   xmlns:svg="http://www.w3.org/2000/svg"
   xmlns:rdf="http://www.w3.org/1999/02/22-rdf-syntax-ns#"
   xmlns:cc="http://creativecommons.org/ns#"
   xmlns:dc="http://purl.org/dc/elements/1.1/"><metadata
     id="metadata47"><rdf:RDF><cc:Work
         rdf:about=""><dc:format>image/svg+xml</dc:format><dc:type
           rdf:resource="http://purl.org/dc/dcmitype/StillImage" /></cc:Work></rdf:RDF></metadata><defs
     id="defs45" /><sodipodi:namedview
     pagecolor="#ffffff"
     bordercolor="#666666"
     borderopacity="1"
     objecttolerance="10"
     gridtolerance="10"
     guidetolerance="10"
     inkscape:pageopacity="0"
     inkscape:pageshadow="2"
     inkscape:window-width="1920"
     inkscape:window-height="998"
     id="namedview43"
     showgrid="false"
     inkscape:zoom="7.6718031"
     inkscape:cx="29.19783"
     inkscape:cy="34.411728"
     inkscape:window-x="0"
     inkscape:window-y="0"
     inkscape:window-maximized="1"
     inkscape:current-layer="Capa_1"
     fit-margin-top="0"
     fit-margin-left="0"
     fit-margin-right="0"
     fit-margin-bottom="0"
     inkscape:showpageshadow="2"
     inkscape:pagecheckerboard="0"
     inkscape:deskcolor="#d1d1d1" /><path
     inkscape:connector-curvature="0"
     id="path7"
     d="M 7.6313217,0 H 39.804003 v 25.186399 c -0.145634,0 -0.291269,-0.01664 -0.432742,-0.01664 -1.805864,0 -3.553475,0.25382 -5.222027,0.686562 V 5.6589299 H 13.290252 V 58.345232 h 9.120863 c 1.647747,2.271894 3.732397,4.202588 6.145765,5.654769 H 7.6313217 Z"
     style="fill:#ffdf6f;stroke-width:4.16098;fill-opacity:1;stroke:none" /><path
     inkscape:connector-curvature="0"
     id="path9"
     d="m 22.394471,46.586309 c 0,-9.599376 7.810156,-17.405371 17.409532,-17.405371 9.603537,0 17.413692,7.805995 17.413692,17.405371 0,9.607698 -7.810155,17.413692 -17.413692,17.413692 -9.599376,0 -17.409532,-7.805994 -17.409532,-17.413692 z m 30.096353,0 c 0,-6.986282 -5.688056,-12.6785 -12.686821,-12.6785 -6.990443,0 -12.686822,5.692218 -12.686822,12.6785 0,7.007086 5.696379,12.690982 12.686822,12.690982 6.998765,0 12.686821,-5.683896 12.686821,-12.690982 z"
     style="fill:#ffdf6f;stroke-width:4.16098;fill-opacity:1;stroke:none" /><path
     id="rect11"
     d="m 31.11172,44.470451 h 5.721345 v -5.721344 h 4.6811 v 5.721344 h 5.591314 v 4.55107 h -5.591314 v 5.721344 h -4.6811 V 49.021521 H 31.11172 Z"
     style="fill:#ffdf6f;stroke-width:4.16098;fill-opacity:1;stroke:none"
     inkscape:connector-curvature="0" /></svg>
