<?xml version="1.0" encoding="UTF-8" standalone="no"?>
<!-- Generator: Adobe Illustrator 18.1.1, SVG Export Plug-In . SVG Version: 6.00 Build 0)  -->

<svg
   version="1.1"
   id="Capa_1"
   x="0px"
   y="0px"
   viewBox="0 0 285.137 285.137"
   style="enable-background:new 0 0 285.137 285.137;"
   xml:space="preserve"
   inkscape:version="1.4.2 (ebf0e940d0, 2025-05-08)"
   width="100%"
   height="100%"
   sodipodi:docname="printer.svg"
   xmlns:inkscape="http://www.inkscape.org/namespaces/inkscape"
   xmlns:sodipodi="http://sodipodi.sourceforge.net/DTD/sodipodi-0.dtd"
   xmlns="http://www.w3.org/2000/svg"
   xmlns:svg="http://www.w3.org/2000/svg"
   xmlns:rdf="http://www.w3.org/1999/02/22-rdf-syntax-ns#"
   xmlns:cc="http://creativecommons.org/ns#"
   xmlns:dc="http://purl.org/dc/elements/1.1/"><metadata
     id="metadata3111"><rdf:RDF><cc:Work
         rdf:about=""><dc:format>image/svg+xml</dc:format><dc:type
           rdf:resource="http://purl.org/dc/dcmitype/StillImage" /></cc:Work></rdf:RDF></metadata><defs
     id="defs3109" /><sodipodi:namedview
     pagecolor="#ffffff"
     bordercolor="#666666"
     borderopacity="1"
     objecttolerance="10"
     gridtolerance="10"
     guidetolerance="10"
     inkscape:pageopacity="0"
     inkscape:pageshadow="2"
     inkscape:window-width="1920"
     inkscape:window-height="998"
     id="namedview3107"
     showgrid="false"
     inkscape:zoom="1.6702021"
     inkscape:cx="34.726337"
     inkscape:cy="74.242513"
     inkscape:window-x="0"
     inkscape:window-y="0"
     inkscape:window-maximized="1"
     inkscape:current-layer="Capa_1"
     inkscape:showpageshadow="2"
     inkscape:pagecheckerboard="0"
     inkscape:deskcolor="#d1d1d1" /><g
     id="g3069"
     style="display:inline;fill:#ffdf6f;fill-opacity:1;stroke:none"><path
       style="fill:#ffdf6f;fill-opacity:1;stroke:none"
       d="m 73.634,240.67 -2.116,22.208 c -1.142,11.961 7.675,21.658 19.689,21.658 h 102.717 c 12.015,0 21.06,-9.714 20.206,-21.702 l -1.583,-22.17 H 73.634 Z"
       id="path3071" /><path
       style="fill:#ffdf6f;fill-opacity:1;stroke:none"
       d="M 285.137,242.112 V 119.553 c 0,-12.015 -9.741,-21.756 -21.756,-21.756 h -37.774 v 57.97 H 59.531 V 97.797 H 21.756 C 9.741,97.797 0,107.538 0,119.553 v 122.558 c 0,12.015 9.741,21.756 21.756,21.756 H 59.53 v -37.6 h 166.071 v 37.6 h 37.774 c 12.021,10e-4 21.762,-9.74 21.762,-21.755 z M 255.636,138.53 c -5.624,0 -10.187,-4.558 -10.187,-10.182 0,-5.624 4.563,-10.182 10.187,-10.182 5.619,0 10.182,4.558 10.182,10.182 0,5.624 -4.563,10.182 -10.182,10.182 z"
       id="path3073" /><path
       style="fill:#ffdf6f;fill-opacity:1;stroke:none"
       d="M 210.639,42.52 V 37.565 L 172.299,0.601 h -5.483 c -0.011,0 -0.011,0 -0.011,0 -0.011,0 -0.011,0 -0.011,0 H 95.613 C 84.224,0.601 74.961,9.853 74.961,21.22 V 141.674 H 210.638 V 42.917 c 0.001,-0.131 0.006,-0.261 0.001,-0.397 z m -20.294,77.387 c 0,0.185 -0.141,0.315 -0.343,0.315 h -94.39 c -0.207,0 -0.354,-0.131 -0.354,-0.315 V 21.215 c 0,-0.185 0.152,-0.321 0.354,-0.321 h 59.748 v 12.407 c 0,15.523 13.315,21.158 22.278,21.158 h 12.706 c 0.001,0 0.001,65.448 0.001,65.448 z"
       id="path3075" /></g></svg>
