<?xml version="1.0" encoding="UTF-8" standalone="no"?>
<svg
   width="64"
   height="64"
   viewBox="0 0 64 64"
   id="svg2"
   version="1.1"
   inkscape:version="1.4.2 (ebf0e940d0, 2025-05-08)"
   sodipodi:docname="reload.svg"
   xmlns:inkscape="http://www.inkscape.org/namespaces/inkscape"
   xmlns:sodipodi="http://sodipodi.sourceforge.net/DTD/sodipodi-0.dtd"
   xmlns="http://www.w3.org/2000/svg"
   xmlns:svg="http://www.w3.org/2000/svg"
   xmlns:rdf="http://www.w3.org/1999/02/22-rdf-syntax-ns#"
   xmlns:cc="http://creativecommons.org/ns#"
   xmlns:dc="http://purl.org/dc/elements/1.1/">
  <metadata
     id="metadata10">
    <rdf:RDF>
      <cc:Work
         rdf:about="">
        <dc:format>image/svg+xml</dc:format>
        <dc:type
           rdf:resource="http://purl.org/dc/dcmitype/StillImage" />
      </cc:Work>
    </rdf:RDF>
  </metadata>
  <defs
     id="defs8" />
  <sodipodi:namedview
     pagecolor="#ffffff"
     bordercolor="#666666"
     borderopacity="1"
     objecttolerance="10"
     gridtolerance="10"
     guidetolerance="10"
     inkscape:pageopacity="0"
     inkscape:pageshadow="2"
     inkscape:window-width="1920"
     inkscape:window-height="998"
     id="namedview6"
     showgrid="false"
     fit-margin-top="0"
     fit-margin-left="0"
     fit-margin-right="0"
     fit-margin-bottom="0"
     inkscape:zoom="7.375"
     inkscape:cx="17.898305"
     inkscape:cy="36.20339"
     inkscape:window-x="0"
     inkscape:window-y="0"
     inkscape:window-maximized="1"
     inkscape:current-layer="svg2"
     inkscape:showpageshadow="2"
     inkscape:pagecheckerboard="0"
     inkscape:deskcolor="#d1d1d1" />
  <path
     d="m 32.176541,8.625915 c -12.802013,0 -23.2763867,10.493769 -23.2763867,23.319487 0,12.825717 10.4743737,23.319486 23.2763867,23.319486 6.401005,0 12.336485,-2.506845 16.526231,-6.76265 L 44.513026,44.30473 c -3.142313,3.14813 -7.506635,5.130287 -12.394678,5.130287 -9.659699,0 -17.457288,-7.812028 -17.457288,-17.489615 0,-9.677587 7.797589,-17.489615 17.457288,-17.489615 4.829851,0 9.0196,2.098754 12.161913,5.305183 l -6.342815,6.35456 H 55.394734 V 8.625915 l -6.924723,6.937547 C 44.280261,11.365955 38.519356,8.625915 32.118348,8.625915 z"
     id="path4"
     inkscape:connector-curvature="0"
     style="fill:#ffdf6f;fill-opacity:1;stroke:none" />
</svg>
